<?xml version="1.0" encoding="UTF-8"?><svg id="Laag_1" xmlns="http://www.w3.org/2000/svg" viewBox="0 0 1000 1000"><defs><style>.cls-1{stroke-width:5.1px;}.cls-1,.cls-2,.cls-3,.cls-4,.cls-5,.cls-6{stroke-linecap:round;stroke-linejoin:round;}.cls-1,.cls-2,.cls-3,.cls-4,.cls-5,.cls-6,.cls-7{stroke:#000;}.cls-1,.cls-3{fill:#e88623;}.cls-2{stroke-width:5.65px;}.cls-2,.cls-4{fill:#fcc97e;}.cls-3{stroke-width:6.53px;}.cls-4{stroke-width:5.29px;}.cls-5{stroke-width:4px;}.cls-5,.cls-6{fill:#fffaa4;}.cls-6,.cls-7{stroke-width:5.4px;}.cls-7{stroke-miterlimit:10;}.cls-7,.cls-8{fill:#f7b49c;}.cls-9,.cls-8{stroke-width:0px;}</style></defs><path class="cls-6" d="m664.43,485.1c32.5,20.04,56.22,61.03,62.9,110.46,6.68-49.43,30.4-90.42,62.9-110.46,6.32-3.9,22.07-9.9,22.07-9.9,0,0-15.74-6-22.07-9.9-32.5-20.04-56.22-61.03-62.9-110.46-6.68,49.43-30.4,90.42-62.9,110.46-6.32,3.9-22.07,9.9-22.07,9.9,0,0,15.74,6,22.07,9.9Z"/><path class="cls-6" d="m800.16,404.56h4.42v4.42s0,24.42,7.79,24.42,7.79-24.42,7.79-24.42v-4.42h4.42s24.42,0,24.42-7.79-24.42-7.79-24.42-7.79h-4.42v-4.42s0-24.42-7.79-24.42-7.79,24.42-7.79,24.42v4.42h-4.42s-24.42,0-24.42,7.79,24.42,7.79,24.42,7.79Z"/><path class="cls-6" d="m577.57,370.39c21.22,11.42,36.7,34.78,41.06,62.96,4.36-28.17,19.84-51.53,41.06-62.96,4.13-2.22,14.41-5.64,14.41-5.64,0,0-10.28-3.42-14.41-5.64-21.22-11.42-36.7-34.78-41.06-62.96-4.36,28.17-19.84,51.53-41.06,62.96-4.13,2.22-14.41,5.64-14.41,5.64,0,0,10.28,3.42,14.41,5.64Z"/><path class="cls-6" d="m684.55,314.5c0-6.77,5.48-12.25,12.25-12.25s12.25,5.49,12.25,12.25-5.49,12.25-12.25,12.25-12.25-5.49-12.25-12.25Z"/><rect class="cls-1" x="320.31" y="469.27" width="368.47" height="249.81" rx="9.69" ry="9.69"/><path class="cls-3" d="m280.98,763.93l38.23-43.61c.71-.81,1.54-1.24,2.38-1.24h365.79c.9,0,1.78.49,2.52,1.41l35.17,43.61c3.55,4.4,1.8,14.34-2.52,14.34h-439.2c-4.42,0-6.1-10.27-2.38-14.51Z"/><polygon class="cls-9" points="282.84 797.17 730.41 795.09 736.66 776.35 278.67 778.43 282.84 797.17"/><path class="cls-4" d="m342.65,498v188.19c0,4.37,3.83,7.91,8.55,7.91h308.2c4.72,0,8.55-3.54,8.55-7.91v-188.19c0-4.37-3.83-7.91-8.55-7.91h-308.2c-4.72,0-8.55,3.54-8.55,7.91Z"/><path class="cls-3" d="m371.15,749.5l12.26-16.37c.26-.34.55-.53.84-.53h253.15c.25,0,.49.13.72.37l14.99,16.37c1.74,1.9,1.19,8.27-.72,8.27h-280.4c-1.83,0-2.45-5.98-.84-8.12Z"/><path class="cls-8" d="m633.74,785.98c-2.65,5.72-7.23,10.55-12.74,13.57-.78-11.23-1.61-22.46-2.6-33.68,3.69-1.04,8.99.83,12.06,3.33,2.6,2.18,4.63,5.2,4.99,8.58.31,2.81-.52,5.61-1.72,8.21Z"/><path class="cls-2" d="m275.41,652.49s-6.25,112.41,159.98,117.59c21.15.66,40.88-28.84,68.99-29.31,0,0,14.18-12.64,31.5,0,13.84,10.11,35.25,30.86,51.98,29.57,47.84-3.67,176.07-31.3,145.54-115.77l37.47-6.25s112.41,231.07-181.11,245.65c0,0-155.95,9.03-206.09,0-71-12.79-208.94-43.36-134-243.21l25.75,1.72Z"/><path class="cls-7" d="m699.78,561.16c1.68-5.99,2.61-10.3,8.71-16.44.68-.68,2.89-2.86,5.66-3.39,3.92-.75,6.31,4.98,7.15,8.87.85,3.9.39,7.94.22,11.92-.29,6.8.32,13.83,3.37,19.92,3.04,6.09,8.88,11.1,15.67,11.7,7.11.63,13.88-3.57,18.58-8.94,2.21-2.52,4.13-5.42,4.79-8.71,1.15-5.8-1.96-11.81-6.5-15.61-4.54-3.8-10.3-5.77-15.98-7.41-6.67-1.92-13.55-3.53-19.27-7.64-1.6-1.15-2.74-2.9-2.99-4.86-.67-5.25,5.16-7.69,9.96-8.19,17.02-1.77,34.63,6.37,44.63,20.18.6.83,1.91.21,1.65-.78-4.7-17.88-15.86-32.25-29.25-45.51-.9-.89-1.33-2.21-.94-3.42,1.12-3.48,6.83-2.72,8.81-1.87,17.68,7.57,31.5,23.59,36.53,42.13.25.91,1.53.92,1.79.01,1.68-5.7-.44-12.26-3.02-17.84-1.91-4.13-4.1-8.38-5.15-12.74-1.04-4.31,3.75-7.7,7.4-5.19.89.61,1.73,1.28,2.52,1.95,5.54,4.67,10.34,10.14,14.38,16.16,3.57,5.32,7.19,10.95,8.76,17.24,1.37,5.48,5.74,29.74,3.04,42.34-7.07,33.02-36,59.4-49.93,64.18-9.31,3.19-27.12,10.78-37.37,5.12-11.24-6.2-47.7-41.4-33.21-93.2Z"/><path class="cls-6" d="m358.4,496.89l1.01,4.58,1.44-7.95c4.59-25.3,18.75-47.86,39.52-63h0,0c-20.22-17.16-34.26-40.47-39.96-66.37l-1.01-4.58-1.44,7.95c-4.59,25.3-18.75,47.86-39.52,63h0c20.22,17.16,34.26,40.47,39.96,66.38Z"/><path class="cls-6" d="m308.35,421.72l.42,1.91.6-3.31c1.91-10.53,7.8-19.92,16.45-26.22h0c-8.42-7.14-14.26-16.84-16.63-27.62l-.42-1.91-.6,3.31c-1.91,10.53-7.8,19.92-16.45,26.22h0c8.42,7.14,14.26,16.84,16.63,27.62Z"/><path class="cls-6" d="m303.13,460.48c-.24-3.11,2.1-5.83,5.21-6.06,3.11-.24,5.83,2.1,6.06,5.21.24,3.11-2.1,5.83-5.21,6.06-3.11.24-5.83-2.1-6.06-5.21Z"/><path class="cls-5" d="m293.73,481.39c-.11-1.44.97-2.69,2.4-2.8,1.44-.11,2.69.97,2.8,2.4.11,1.44-.97,2.69-2.4,2.8-1.44.11-2.69-.97-2.8-2.4Z"/><path class="cls-9" d="m539.13,721.41c-5.32-20.95,54.35-61.97,60.9-81.97,5.14-15.68,22.24-30.98-9.68-96.33-7.08-14.5-15.18-28.64-27.49-36.84-3.7-2.46-7.68-4.42-11.87-5.29-4.77-.99-9.7-.53-14.4.83-4.32,1.26-8.46,3.36-12.23,6.13-3.48-.97-11.67-4-15.07-4.35-43.82-4.42-92.85,50.65-89.14,93.43,1.65,18.96,8.67,36.98,15.66,54.67,6.99,17.7,55.43,50.77,57.29,69.7,1.75,17.81-24.23,49.29-27.19,66.94-6.51,38.72-11.74,32.5-18.25,71.22-1.8,10.69,1.3,20.91,3.6,31.5,2.3,10.59-14.82,37.85-4.24,40.18,19.06,4.2,37.02-17.85,55.86-12.74,12.4,3.36,20.49,17.76,33.33,18.28,13.42.54,22.22-14.15,34.8-18.85,15.1-5.63,35.39,13.1,47.88,2.92,6.5-5.3-4.96-33.48-7.42-41.49-10.8-35.1,2.88-33.96-20.7-63.9-22.43-28.49-43.85-63.42-51.64-94.06Z"/><path class="cls-4" d="m538.89,707.46c.74-.17,1.61-.33,2.23.05.47.28.64.79.78,1.25,1.04,3.41,2.05,7.1.43,10.35-1.38,2.76-4.49,4.73-7.86,5.82-3.37,1.09-7.03,1.41-10.63,1.72-7.31.63-14.62,1.26-21.93,1.89-3.99.34-8.63.5-11.34-1.94-1.41-1.27-1.98-3.01-2.5-4.68-1.06-3.38-2.11-6.87-1.49-10.33,1.93-10.71,11.98-4.38,20.1-3.12,10.64,1.66,21.75,1.33,32.21-1.01Z"/><path class="cls-7" d="m308.83,562.37c-1.68-5.99-2.61-10.3-8.71-16.44-.68-.68-2.89-2.86-5.66-3.39-3.92-.75-6.31,4.98-7.15,8.87s-.39,7.94-.22,11.92c.29,6.8-.32,13.83-3.37,19.92-3.04,6.09-8.88,11.1-15.67,11.7-7.11.63-13.88-3.57-18.58-8.94-2.21-2.52-4.13-5.42-4.79-8.71-1.15-5.8,1.96-11.81,6.5-15.61s10.3-5.77,15.98-7.41c6.67-1.92,13.55-3.53,19.27-7.64,1.6-1.15,2.74-2.9,2.99-4.86.67-5.25-5.16-7.69-9.96-8.19-17.02-1.77-34.63,6.37-44.63,20.18-.6.83-1.91.21-1.65-.78,4.7-17.88,15.86-32.25,29.25-45.51.9-.89,1.33-2.21.94-3.42-1.12-3.48-6.83-2.72-8.81-1.87-17.68,7.57-31.5,23.59-36.53,42.13-.25.91-1.53.92-1.79.01-1.68-5.7.44-12.26,3.02-17.84,1.91-4.13,4.1-8.38,5.15-12.74,1.04-4.31-3.75-7.7-7.4-5.19-.89.61-1.73,1.28-2.52,1.95-5.54,4.67-10.34,10.14-14.38,16.16-3.57,5.32-7.19,10.95-8.76,17.24-1.37,5.48-5.74,29.74-3.04,42.34,7.07,33.02,36,59.4,49.93,64.18,9.31,3.19,27.12,10.78,37.37,5.12,11.24-6.2,47.7-41.4,33.21-93.2Z"/></svg>