<?xml version="1.0" encoding="UTF-8"?><svg id="Laag_1" xmlns="http://www.w3.org/2000/svg" viewBox="0 0 1000 1000"><defs><style>.cls-1{stroke-width:6.24px;}.cls-1,.cls-2,.cls-3,.cls-4,.cls-5,.cls-6,.cls-7,.cls-8{stroke:#000;}.cls-1,.cls-2,.cls-4,.cls-5,.cls-6,.cls-7,.cls-8{stroke-linecap:round;stroke-linejoin:round;}.cls-1,.cls-4{fill:#fffaa4;}.cls-2{stroke-width:5.93px;}.cls-2,.cls-6,.cls-7{fill:#fcc97e;}.cls-3{stroke-miterlimit:10;stroke-width:6.33px;}.cls-3,.cls-9{fill:#f7b49c;}.cls-4{stroke-width:4.62px;}.cls-5{stroke-width:5.9px;}.cls-5,.cls-8{fill:#e88623;}.cls-10,.cls-9{stroke-width:0px;}.cls-6{stroke-width:6.62px;}.cls-7{stroke-width:6.11px;}.cls-8{stroke-width:7.54px;}</style></defs><path class="cls-1" d="m676.9,425.59c37.54,23.15,64.93,70.49,72.65,127.58,7.72-57.1,35.11-104.44,72.65-127.58,7.31-4.5,25.49-11.43,25.49-11.43,0,0-18.19-6.93-25.49-11.43-37.54-23.15-64.93-70.49-72.65-127.58-7.72,57.1-35.11,104.44-72.65,127.58-7.31,4.5-25.49,11.43-25.49,11.43,0,0,18.19,6.93,25.49,11.43Z"/><path class="cls-1" d="m833.66,332.55h5.11v5.11s0,28.21,8.99,28.21,9-28.21,9-28.21v-5.11h5.11s28.21,0,28.21-9-28.21-9-28.21-9h-5.11v-5.11s0-28.21-9-28.21-8.99,28.21-8.99,28.21v5.11h-5.11s-28.21,0-28.21,9,28.21,9,28.21,9Z"/><path class="cls-1" d="m576.56,293.08c24.51,13.19,42.39,40.17,47.43,72.72,5.04-32.54,22.92-59.52,47.43-72.72,4.77-2.57,16.64-6.52,16.64-6.52,0,0-11.87-3.95-16.64-6.52-24.51-13.19-42.39-40.17-47.43-72.72-5.04,32.54-22.92,59.52-47.43,72.72-4.77,2.57-16.64,6.52-16.64,6.52,0,0,11.87,3.95,16.64,6.52Z"/><path class="cls-1" d="m700.13,228.53c0-7.82,6.34-14.15,14.15-14.15s14.15,6.34,14.15,14.15-6.34,14.15-14.15,14.15-14.15-6.34-14.15-14.15Z"/><rect class="cls-5" x="279.41" y="407.3" width="425.6" height="288.54" rx="11.19" ry="11.19"/><path class="cls-8" d="m233.99,747.64l44.16-50.37c.82-.94,1.78-1.43,2.75-1.43h422.51c1.04,0,2.06.57,2.91,1.63l40.63,50.37c4.1,5.09,2.08,16.56-2.91,16.56H236.74c-5.1,0-7.05-11.86-2.75-16.76Z"/><polygon class="cls-10" points="236.13 786.04 753.1 783.63 760.32 761.99 231.32 764.4 236.13 786.04"/><path class="cls-7" d="m305.22,440.48v217.36c0,5.05,4.42,9.14,9.88,9.14h355.99c5.46,0,9.88-4.09,9.88-9.14v-217.36c0-5.05-4.42-9.14-9.88-9.14h-355.99c-5.46,0-9.88,4.09-9.88,9.14Z"/><path class="cls-8" d="m338.13,730.98l14.16-18.9c.3-.4.63-.61.97-.61h292.4c.29,0,.57.15.83.43l17.31,18.9c2.01,2.19,1.37,9.55-.83,9.55h-323.87c-2.11,0-2.82-6.9-.97-9.37Z"/><path class="cls-9" d="m641.44,773.11c-3.06,6.6-8.35,12.19-14.71,15.67-.9-12.97-1.86-25.94-3-38.91,4.26-1.2,10.39.96,13.93,3.84,3,2.52,5.34,6,5.76,9.91.36,3.24-.6,6.48-1.98,9.49Z"/><path class="cls-6" d="m228.04,583.78s-7.32,131.74,187.48,137.81c24.79.77,47.91-33.8,80.85-34.35,0,0,16.62-14.82,36.92,0,16.22,11.84,41.31,36.16,60.91,34.66,56.06-4.3,206.34-36.68,170.56-135.68l43.91-7.32s131.74,270.8-212.25,287.88c0,0-182.77,10.59-241.52,0-83.2-14.99-244.86-50.81-157.04-285.02l30.18,2.02Z"/><path class="cls-3" d="m725.36,476.76c1.97-7.02,3.05-12.07,10.21-19.27.79-.8,3.39-3.36,6.64-3.97,4.59-.87,7.39,5.83,8.38,10.4.99,4.57.45,9.3.25,13.97-.34,7.97.38,16.21,3.94,23.35,3.57,7.14,10.41,13,18.36,13.71,8.33.74,16.27-4.18,21.78-10.47,2.59-2.96,4.84-6.36,5.61-10.21,1.35-6.8-2.3-13.84-7.62-18.29-5.32-4.45-12.07-6.76-18.73-8.68-7.82-2.25-15.87-4.14-22.58-8.95-1.88-1.35-3.21-3.4-3.5-5.69-.79-6.16,6.05-9.01,11.67-9.6,19.95-2.08,40.58,7.46,52.31,23.65.7.97,2.24.25,1.94-.92-5.5-20.96-18.59-37.79-34.28-53.33-1.05-1.04-1.56-2.59-1.1-4,1.32-4.07,8-3.19,10.33-2.19,20.72,8.87,36.91,27.64,42.81,49.38.29,1.07,1.79,1.08,2.1.01,1.97-6.68-.51-14.37-3.54-20.91-2.24-4.83-4.8-9.82-6.04-14.93-1.22-5.05,4.39-9.03,8.67-6.08,1.04.72,2.03,1.5,2.95,2.28,6.49,5.47,12.12,11.89,16.85,18.94,4.18,6.24,8.43,12.83,10.26,20.2,1.6,6.43,6.73,34.85,3.56,49.62-8.29,38.69-42.19,69.62-58.52,75.21-10.91,3.74-31.78,12.64-43.8,6-13.17-7.27-55.9-48.52-38.92-109.23Z"/><path class="cls-1" d="m323.41,439.2l1.17,5.29,1.67-9.19c5.3-29.22,21.65-55.28,45.65-72.77h0,0c-23.36-19.82-39.57-46.75-46.15-76.67l-1.17-5.29-1.67,9.19c-5.3,29.22-21.65,55.28-45.65,72.77h0c23.36,19.82,39.57,46.75,46.15,76.67Z"/><path class="cls-1" d="m265.6,352.38l.48,2.2.69-3.82c2.21-12.16,9.01-23.01,19-30.29h0c-9.72-8.25-16.47-19.46-19.21-31.91l-.48-2.2-.69,3.82c-2.21,12.16-9.01,23.01-19,30.29h0c9.72,8.25,16.47,19.46,19.21,31.91Z"/><path class="cls-1" d="m259.57,397.15c-.27-3.6,2.42-6.73,6.02-7.01,3.6-.27,6.73,2.42,7.01,6.02.27,3.6-2.42,6.73-6.02,7.01-3.6.27-6.73-2.42-7.01-6.02Z"/><path class="cls-4" d="m248.71,421.29c-.13-1.66,1.12-3.1,2.77-3.23,1.66-.13,3.1,1.12,3.23,2.77.13,1.66-1.12,3.1-2.77,3.23-1.66.13-3.1-1.12-3.23-2.77Z"/><path class="cls-10" d="m521.03,679.86c-5.97-23.47,60.88-69.43,68.23-91.84,5.76-17.56,24.92-34.7-10.84-107.92-7.93-16.24-17.01-32.09-30.8-41.27-4.14-2.76-8.6-4.95-13.3-5.92-5.34-1.1-10.87-.6-16.13.94-4.84,1.41-9.48,3.76-13.7,6.87-3.9-1.09-13.08-4.48-16.89-4.87-49.09-4.96-104.03,56.75-99.86,104.67,1.85,21.24,9.71,41.43,17.54,61.25,7.84,19.83,62.1,56.88,64.19,78.09,1.96,19.95-27.14,55.23-30.47,74.99-7.29,43.38-13.15,36.41-20.45,79.79-2.01,11.97,1.46,23.42,4.03,35.29s-16.6,42.4-4.74,45.02c21.35,4.71,41.48-19.99,62.58-14.27,13.9,3.77,22.95,19.9,37.34,20.48,15.03.61,24.89-15.85,38.98-21.11,16.92-6.31,39.65,14.68,53.64,3.27,7.28-5.93-5.55-37.51-8.32-46.48-12.1-39.33,3.22-38.04-23.19-71.59-25.13-31.92-49.13-71.05-57.86-105.38Z"/><path class="cls-2" d="m520.76,664.23c.83-.19,1.8-.37,2.5.05.53.32.72.88.88,1.4,1.16,3.82,2.3,7.96.48,11.6-1.54,3.09-5.03,5.3-8.81,6.52-3.78,1.22-7.87,1.58-11.91,1.93-8.19.71-16.38,1.41-24.56,2.12-4.47.39-9.67.56-12.71-2.18-1.58-1.43-2.22-3.37-2.8-5.24-1.18-3.79-2.36-7.7-1.67-11.57,2.17-11.99,13.43-4.91,22.52-3.5,11.92,1.86,24.37,1.49,36.08-1.14Z"/><path class="cls-3" d="m267.2,478.17c-1.97-7.02-3.05-12.07-10.21-19.27-.79-.8-3.39-3.36-6.64-3.97-4.59-.87-7.39,5.83-8.38,10.4s-.45,9.3-.25,13.97c.34,7.97-.38,16.21-3.94,23.35-3.57,7.14-10.41,13-18.36,13.71-8.33.74-16.27-4.18-21.78-10.47-2.59-2.96-4.84-6.36-5.61-10.21-1.35-6.8,2.3-13.84,7.62-18.29,5.32-4.45,12.07-6.76,18.73-8.68,7.82-2.25,15.87-4.14,22.58-8.95,1.88-1.35,3.21-3.4,3.5-5.69.79-6.16-6.05-9.01-11.67-9.6-19.95-2.08-40.58,7.46-52.31,23.65-.7.97-2.24.25-1.94-.92,5.5-20.96,18.59-37.79,34.28-53.33,1.05-1.04,1.56-2.59,1.1-4-1.32-4.07-8-3.19-10.33-2.19-20.72,8.87-36.91,27.64-42.81,49.38-.29,1.07-1.79,1.08-2.1.01-1.97-6.68.51-14.37,3.54-20.91,2.24-4.83,4.8-9.82,6.04-14.93,1.22-5.05-4.39-9.03-8.67-6.08-1.04.72-2.03,1.5-2.95,2.28-6.49,5.47-12.12,11.89-16.85,18.94-4.18,6.24-8.43,12.83-10.26,20.2-1.6,6.43-6.73,34.85-3.56,49.62,8.29,38.69,42.19,69.62,58.52,75.21,10.91,3.74,31.78,12.64,43.8,6,13.17-7.27,55.9-48.52,38.92-109.23Z"/></svg>