<?xml version="1.0" encoding="UTF-8"?><svg id="Laag_1" xmlns="http://www.w3.org/2000/svg" viewBox="0 0 1000 1000"><defs><style>.cls-1{fill:#e88623;stroke-width:6.25px;}.cls-1,.cls-2,.cls-3,.cls-4,.cls-5,.cls-6,.cls-7,.cls-8,.cls-9,.cls-10,.cls-11,.cls-12{stroke-linecap:round;stroke-linejoin:round;}.cls-1,.cls-2,.cls-3,.cls-4,.cls-13,.cls-6,.cls-14,.cls-7,.cls-15,.cls-8,.cls-9,.cls-11,.cls-16,.cls-12{stroke:#000;}.cls-2{stroke-width:5.04px;}.cls-2,.cls-17{fill:#faf6f1;}.cls-3{stroke-width:5px;}.cls-3,.cls-4,.cls-5,.cls-13,.cls-6,.cls-7,.cls-8,.cls-10,.cls-11{fill:#fcc97e;}.cls-4{stroke-width:6.48px;}.cls-5{stroke-width:20px;}.cls-5,.cls-10{stroke:#fcc97e;}.cls-13,.cls-6,.cls-12{stroke-width:4px;}.cls-13,.cls-14,.cls-15,.cls-16{stroke-miterlimit:10;}.cls-14{stroke-width:9.03px;}.cls-14,.cls-15{fill:#f8ae54;}.cls-7{stroke-width:4.78px;}.cls-15{stroke-width:9.18px;}.cls-8,.cls-9{stroke-width:3.44px;}.cls-18,.cls-19,.cls-17{stroke-width:0px;}.cls-10{stroke-width:14px;}.cls-11{stroke-width:7.28px;}.cls-16{stroke-width:6.62px;}.cls-16,.cls-19{fill:#f7b49c;}</style></defs><path class="cls-5" d="m378.32,268.08c-.47-.73-.73-1.11-.73-1.11l-59.17,11.82c-9.6-15.74-16.91-27.28-16.91-27.28l-2.19,1.22c-.73-1.16-1.14-1.81-1.14-1.81l-84.65,47.29,31.01,64.34-21.3,36.99,38.81,10.36c27.22,7.26,52.92,19.79,75.46,36.77l27.64,20.83.63-1.44,2.7,2.03,20.15-46.06,54.94-11.71c1.57-45.43-62.65-142.76-62.65-142.76l-2.61.52Z"/><circle class="cls-5" cx="360" cy="163.65" r="49.37" transform="translate(5 337.87) rotate(-50.59)"/><path class="cls-5" d="m704.55,276.07l-13.41,16.88.13.12-.31.39,25.53,24.33,3.57-4.65,65.2,48.43s10.86-1.32,20.33,1.54c9.47,2.86,14.2,4.29,14.2,4.29l9.47,2.86,6.13-2.75-.33-.29.51-.23-8.07-7.04s-16.15-14.08-16.69-28.04l-76.29-37.63,2.68-3.49s-.07-.03-.16-.07l.34-.45s-29.73-13.17-32.81-14.22Z"/><path class="cls-5" d="m660.76,340.32h-.01c-.27-.1-.54-.2-.83-.26l-31.66-6.6-2.59-7c-.96-2.61-3.28-4.57-6.09-5.16l-.22-.05c-.21-.06-.4-.17-.62-.21l-60.75-12.74c-.24-.57-.59-1.1-1.1-1.5l-12.6-9.74c-.49-.38-1.03-.6-1.58-.7-1.92-.86-4.27.11-4.93,2.24l-1.58,5.13-10.94-2.29c-.93-.19-1.83-.22-2.69-.12-1.11-.26-2.27.11-3.01.96q-1.33,1.92-3.45,8.96l-19.08,63.17c-.31,1.01-.09,2.11.6,2.91l65.44,76.92c.52.61,1.19.93,1.88,1.03,1.61.76,3.68.02,4.26-1.86,1.68.02,3.37-.63,4.59-2.08l31.23-37.25,26.09,4.29,17.12,3.55c2.1.43,4.06.06,5.66-.84,2.01-.87,3.54-2.74,3.81-5.09l8.09-68.67c.39-3.28-1.79-6.31-5.03-6.98Z"/><path class="cls-10" d="m654.65,323.5l-.31-.05c-.17-.08-.34-.17-.53-.2l-17.95-3.17c-1.14-.2-2.23.55-2.44,1.69l-1.89,10.17c-.22,1.17.57,2.28,1.74,2.47l.26.04c.18.09.37.18.58.22l18.57,2.93c1.18.19,2.27-.64,2.42-1.82l1.26-9.93c.14-1.12-.62-2.15-1.73-2.34Z"/><path class="cls-3" d="m656.86,411.88l-31.63-85.49c-.96-2.61-3.28-4.57-6.09-5.16l-95.52-19.25c.12-.25-6.94,4.6-4.98,10.26l27.51,84.52c.93,2.68,3.29,4.71,6.17,5.31l95.46,19.77c6.13,1.27,11.18-4.28,9.08-9.95Z"/><path class="cls-3" d="m665.34,347.23l-8.09,68.67c-.42,3.61-3.77,6.13-7.36,5.54l-107.75-17.7c-3.47-.57-5.82-3.84-5.25-7.31l11.9-72.66c.59-3.58,4.04-5.95,7.59-5.21l103.94,21.68c3.23.67,5.41,3.7,5.02,6.98Z"/><path class="cls-3" d="m636.18,376.27l-62.85,74.98c-2.85,3.41-8.3,2.59-10.03-1.51l-30.31-71.78c-.68-1.61-.62-3.45.18-5.01l25.04-49.15c1.62-3.18,5.66-4.22,8.62-2.23l68.12,45.94c2.92,1.97,3.5,6.04,1.23,8.75Z"/><path class="cls-3" d="m534.8,309.67l-10.76-7.7c-1.71-1.23-4.12-.41-4.74,1.6l-21.9,71.02c-.31,1.01-.09,2.11.6,2.91l65.44,76.92c1.58,1.85,4.58,1.24,5.3-1.09l29.51-95.69c.39-1.27-.07-2.65-1.15-3.42l-62.29-44.55Z"/><path class="cls-3" d="m553.79,323.25l3.88-12.6c.44-1.44-.05-3.01-1.25-3.93l-12.6-9.74c-2-1.55-4.93-.62-5.67,1.8l-3.36,10.88"/><line class="cls-3" x1="534.8" y1="309.67" x2="553.79" y2="323.25"/><path class="cls-3" d="m654.67,335.7l1.26-9.93c.14-1.12-.62-2.15-1.73-2.34l-17.95-3.17c-1.14-.2-2.23.55-2.44,1.69l-1.89,10.17c-.22,1.17.57,2.28,1.74,2.47l18.57,2.93c1.18.19,2.27-.64,2.42-1.82Z"/><polyline class="cls-2" points="599.91 361.62 619.45 373.44 578.7 430.42"/><path class="cls-3" d="m253.15,370.61l-34.88-72.37,84.65-47.29s59.47,93.84,62.1,111.86l-97.95,40.43-13.91-32.63Z"/><line class="cls-3" x1="242.71" y1="313.27" x2="303.66" y2="277.88"/><line class="cls-3" x1="248.3" y1="328.5" x2="309.26" y2="293.11"/><path class="cls-3" d="m266.79,409.94l-38.81-10.36,63.45-110.19s108.39,63.32,121.42,79.95l-42.95,98.2-27.64-20.83c-22.54-16.98-48.25-29.51-75.46-36.77Z"/><line class="cls-3" x1="266.55" y1="392.22" x2="297.47" y2="326.58"/><line class="cls-3" x1="286.27" y1="398.74" x2="311.31" y2="336.16"/><line class="cls-3" x1="306.59" y1="402.91" x2="328.39" y2="349.87"/><path class="cls-3" d="m307.62,358.48l-39.94-68.58,114.66-22.89s64.22,97.33,62.65,142.76l-110.64,23.58-3.3-15.07c-4.55-20.78-12.45-40.96-23.43-59.8Z"/><line class="cls-3" x1="295.54" y1="304.66" x2="374.04" y2="286.86"/><line class="cls-3" x1="305.23" y1="316.35" x2="384.54" y2="298.59"/><line class="cls-3" x1="312.7" y1="330.89" x2="389.12" y2="313.26"/><line class="cls-3" x1="339.03" y1="404.34" x2="418.19" y2="383.65"/><polygon class="cls-2" points="339.58 380.32 321.03 348.56 394.94 329.71 409.36 364.29 339.58 380.32"/><rect class="cls-1" x="277.03" y="405.69" width="429.57" height="291.23" rx="11.3" ry="11.3"/><path class="cls-14" d="m231.18,742.01l44.57-43.84c.83-.82,1.79-1.25,2.78-1.25h426.44c1.05,0,2.08.49,2.94,1.42l41.01,43.84c4.14,4.43,2.1,14.42-2.94,14.42H233.96c-5.15,0-7.11-10.32-2.78-14.59Z"/><polygon class="cls-18" points="233.03 778.43 747.95 776.01 755.13 754.17 228.24 756.59 233.03 778.43"/><path class="cls-11" d="m303.08,439.18v219.39c0,5.09,4.46,9.22,9.97,9.22h359.3c5.51,0,9.97-4.13,9.97-9.22v-219.39c0-5.09-4.46-9.22-9.97-9.22h-359.3c-5.51,0-9.97,4.13-9.97,9.22Z"/><circle class="cls-3" cx="360.41" cy="162.09" r="49.37" transform="translate(-34.69 154.07) rotate(-23.05)"/><path class="cls-18" d="m355.66,134.05c-.5-.2-.88-.65-.96-1.22l-1.25-8.85c-.12-.85.47-1.63,1.32-1.75.85-.12,1.63.47,1.75,1.32l1.25,8.85c.12.85-.47,1.63-1.32,1.75-.28.04-.55,0-.79-.1Z"/><path class="cls-18" d="m365.25,201.86c-.5-.2-.88-.65-.96-1.22l-1.25-8.85c-.12-.85.47-1.63,1.32-1.75.85-.12,1.63.47,1.75,1.32l1.25,8.85c.12.85-.47,1.63-1.32,1.75-.28.04-.55,0-.8-.1Z"/><path class="cls-18" d="m332.22,152.4l-8.29-3.34c-.79-.32-1.18-1.22-.86-2.02.32-.79,1.22-1.18,2.02-.86l8.29,3.34c.79.32,1.18,1.22.86,2.02-.32.79-1.22,1.18-2.02.86Z"/><path class="cls-18" d="m395.74,178l-8.29-3.34c-.79-.32-1.18-1.22-.86-2.02.32-.79,1.22-1.18,2.02-.86l8.29,3.34c.79.32,1.18,1.22.86,2.02-.32.79-1.22,1.18-2.02.86Z"/><path class="cls-18" d="m329.35,187.39c-.24-.1-.47-.26-.64-.48-.53-.67-.41-1.65.26-2.18l7.04-5.51c.67-.53,1.65-.41,2.18.27.53.67.41,1.65-.26,2.18l-7.04,5.51c-.45.35-1.04.42-1.54.22Z"/><path class="cls-18" d="m383.27,145.18c-.24-.1-.47-.26-.64-.48-.53-.67-.41-1.65.27-2.18l7.04-5.51c.67-.53,1.65-.41,2.18.27.53.67.41,1.65-.27,2.18l-7.04,5.51c-.45.35-1.04.42-1.54.22Z"/><circle class="cls-12" cx="359.99" cy="162.46" r="3.96"/><path class="cls-12" d="m348.21,167.53c4-.69,6.98-2.8,6.98-2.8,0,0-3.51-.99-7.51-.3-4,.69-6.98,2.8-6.98,2.8,0,0,3.51.99,7.51.3Z"/><path class="cls-12" d="m371.42,149.99c3.68-5.16,5.39-10.25,5.39-10.25,0,0-4.26,3.27-7.95,8.42-3.68,5.16-5.39,10.25-5.39,10.25,0,0,4.26-3.27,7.95-8.42Z"/><path class="cls-5" d="m464.17,272.06c32.73,0,81.82-40.91,81.82-40.91l-1.42-1.18c1.23-.98,1.92-1.56,1.92-1.56l-49.09-40.91c-32.73,32.73-65.46,32.73-65.46,32.73l1.74,2.62c-1.46.12-2.25.12-2.25.12l32.73,49.09Z"/><path class="cls-3" d="m434.36,221.68s32.73,0,65.46-32.73l49.09,40.91s-49.09,40.91-81.82,40.91l-32.73-49.09Z"/><line class="cls-3" x1="494.29" y1="207.28" x2="522.3" y2="235.29"/><polygon class="cls-6" points="701.71 299.68 714.27 285.08 810.59 332.58 785.23 361.71 701.71 299.68"/><path class="cls-9" d="m704.35,276.73c3.08,1.05,32.81,14.22,32.81,14.22l-20.69,26.99-25.53-24.33,13.41-16.88Z"/><ellipse class="cls-8" cx="784.05" cy="337.93" rx="7.23" ry="8.15" transform="translate(307.33 1046.22) rotate(-79.37)"/><path class="cls-9" d="m785.23,361.71s10.86-1.32,20.33,1.54c9.47,2.86,14.2,4.29,14.2,4.29l7.52-6.92s-16.15-14.08-16.69-28.04l-25.36,29.13Z"/><polygon class="cls-6" points="827.29 360.62 835.36 367.66 829.23 370.41 819.76 367.55 827.29 360.62"/><path class="cls-15" d="m343.57,730.74l14.29-15.14c.3-.32.64-.49.98-.49h295.13c.29,0,.57.12.84.35l17.47,15.14c2.03,1.75,1.38,7.65-.84,7.65h-326.89c-2.13,0-2.85-5.53-.98-7.51Z"/><path class="cls-19" d="m642.43,774.91c-3.09,6.67-8.42,12.3-14.85,15.82-.91-13.09-1.88-26.18-3.03-39.27,4.3-1.21,10.48.97,14.06,3.88,3.03,2.55,5.39,6.06,5.82,10,.36,3.27-.61,6.55-2,9.58Z"/><path class="cls-4" d="m337.8,575.49s-34.36,181.16,93.51,165.32c20.69-2.56,53.23-38.83,72.81-38.83,0,0,32.92,41.32,63.1,33.98,55.35-13.46,113.73-39.67,70.87-158.26l23.95-34.22s269.92,265.69-65.69,318.68c0,0-221.4,7.18-276.67-14.56-85.33-33.56-162.14-108.59-3.95-291.98l22.08,19.87Z"/><path class="cls-5" d="m869.45,490.37c-1.93-13.17-7.06-25.4-14.69-35.91-.62-.86-1.04-1.43-1.15-1.54-.08-.13-.5-.71-1.14-1.55-7.84-10.36-18.05-18.82-30.09-24.5-3.56-1.68-6.98-2.13-6.24-1.93-45.46-13.09-92.65,18.71-94.15,16.69-.56-.76-2.1-1.16-3.95-1.35-5.72-.6-11.69.91-17.04,3.78-31.56,16.95-36.44,40.14-36.44,40.14l8.99,12.13c8.99,12.13,16.26,10.5,16.26,10.5,0,0,.17-.12.46-.35.95.07,1.49-.04,1.49-.04,0,0,42.91-31.81,46.52-38.16,2.87-5.07-1.02-12.13-2.72-14.79,55.52-31.29,92.3-4.7,101.76,3.62,1.26,1.5,2.59,3.08,3.98,4.71,1.16,1.8,2.28,3.54,3.35,5.18,5.21,11.47,19.94,54.39-26.14,98.41-2.05-2.4-7.67-8.18-13.36-6.91-7.13,1.6-50.04,33.4-50.04,33.4,0,0-.37.67-.58,1.97-.09.06-.13.1-.13.1,0,0-3.67,6.48,5.32,18.61l8.99,12.13s23.58,2.07,48.96-23.15c4.32-4.29,7.52-9.58,8.61-15.24.35-1.83.42-3.41-.14-4.17-1.5-2.02,42.65-37.92,43.35-85.22.67.1.54-2.64-.03-6.53Z"/><path class="cls-3" d="m816.57,599.77c4.24-4.21,7.37-9.4,8.45-14.95.35-1.79.41-3.35-.14-4.09-1.47-1.98,41.83-37.19,42.52-83.58-.9-17.54-6.96-31.31-14.44-41.63-.61-.84-1.02-1.4-1.13-1.51-.08-.13-.49-.69-1.12-1.52-7.69-10.16-17.7-18.46-29.51-24.03-3.49-1.65-6.84-2.09-6.12-1.9-44.58-12.84-90.86,18.35-92.33,16.36-.55-.74-2.06-1.14-3.87-1.33-5.61-.59-11.47.89-16.71,3.71-30.95,16.63-35.74,39.36-35.74,39.36l8.81,11.89c8.81,11.89,15.94,10.3,15.94,10.3,0,0,42.91-31.81,46.52-38.16,2.87-5.07-1.02-12.13-2.72-14.79,55.52-31.29,92.3-4.7,101.76,3.62,1.26,1.5,2.59,3.08,3.98,4.71,1.16,1.8,2.28,3.54,3.35,5.18,5.21,11.47,19.94,54.39-26.14,98.41-2.05-2.4-7.67-8.18-13.36-6.91-7.13,1.6-50.04,33.4-50.04,33.4,0,0-3.6,6.35,5.21,18.25l8.81,11.89s23.12,2.03,48.02-22.7Z"/><polygon class="cls-5" points="607.42 200.57 563.7 160.8 629.23 146.02 619.6 108.85 672.52 136.82 723.65 79.3 743.14 123.47 794.68 101.37 767.86 153.46 788.46 196.67 723.08 195.85 706.98 243.55 661.44 214.06 596.48 248.67 607.42 200.57"/><polygon class="cls-3" points="607.9 200.43 564.19 160.66 629.72 145.88 620.09 108.7 673.01 136.68 724.14 79.16 743.62 123.32 795.17 101.23 768.34 153.32 788.94 196.53 723.56 195.71 707.46 243.41 661.93 213.92 596.97 248.52 607.9 200.43"/><path class="cls-18" d="m627.38,208.43c-.28-.72-.42-1.45-.41-2.2,0-.75.16-1.45.44-2.11.29-.66.7-1.25,1.23-1.77.54-.52,1.17-.92,1.89-1.21s1.45-.42,2.2-.41c.75.01,1.45.16,2.11.44.66.29,1.25.7,1.77,1.24.52.54.92,1.17,1.21,1.89s.42,1.45.41,2.2c-.01.75-.16,1.45-.44,2.11s-.7,1.25-1.24,1.77c-.54.52-1.17.92-1.89,1.21s-1.45.42-2.2.41c-.75,0-1.45-.16-2.11-.44-.66-.28-1.25-.7-1.77-1.24-.52-.54-.92-1.17-1.21-1.89Zm6.15-12.16l-8.51,3.37-10.66-26.9,8.51-3.37,10.66,26.9Z"/><path class="cls-18" d="m671.79,174.35c.1.57.23,1.24.4,2.01.17.76.36,1.41.57,1.94.17.42.42.74.75.98.34.24.81.24,1.41,0s1.14-.64,1.6-1.19c.46-.55.78-1.27.95-2.15.18-.88.2-1.91.06-3.08-.14-1.17-.5-2.5-1.08-3.97-.9-2.27-2.06-4.12-3.48-5.55-1.42-1.43-3.01-2.47-4.79-3.13-1.77-.65-3.68-.92-5.73-.78-2.05.13-4.15.63-6.31,1.48-2.35.93-4.33,2.17-5.94,3.73-1.61,1.56-2.83,3.33-3.64,5.32-.81,1.99-1.21,4.11-1.18,6.38.02,2.27.49,4.56,1.41,6.86.99,2.5,2.29,4.56,3.9,6.2,1.61,1.64,3.43,2.84,5.47,3.61s4.22,1.12,6.55,1.05c2.34-.07,4.69-.58,7.08-1.53,2.16-.85,4.01-1.94,5.57-3.26,1.56-1.32,2.82-2.8,3.78-4.45l6.24-2.47c-.93,3.61-2.63,6.75-5.1,9.41-2.47,2.66-5.44,4.69-8.92,6.06-3.03,1.2-6.08,1.81-9.16,1.83-3.08.02-5.99-.5-8.73-1.56-2.74-1.06-5.2-2.66-7.38-4.79-2.18-2.13-3.88-4.73-5.09-7.8-1.2-3.03-1.74-6.05-1.63-9.07.12-3.02.78-5.87,2-8.54,1.22-2.67,2.93-5.07,5.13-7.19,2.2-2.12,4.8-3.77,7.79-4.96,2.5-.99,5.11-1.55,7.83-1.69,2.72-.14,5.35.21,7.87,1.05,2.52.84,4.82,2.19,6.9,4.06,2.08,1.87,3.71,4.3,4.89,7.29.8,2.01,1.25,3.84,1.36,5.5.11,1.66,0,3.15-.33,4.47-.33,1.31-.83,2.48-1.51,3.49-.67,1.01-1.4,1.87-2.2,2.58s-1.59,1.3-2.39,1.77c-.8.47-1.48.82-2.05,1.04-1.59.63-2.85.76-3.79.39-.94-.37-1.57-.93-1.91-1.67l-.11.05c-.46,1.06-1.12,2.13-2.01,3.22-.88,1.09-2.23,2-4.04,2.72-1.21.48-2.41.68-3.6.61-1.19-.08-2.31-.39-3.36-.93-1.05-.55-2-1.33-2.87-2.34-.86-1.01-1.57-2.22-2.13-3.62-.66-1.66-1.03-3.37-1.11-5.11-.08-1.74.13-3.4.62-4.97.49-1.57,1.3-2.99,2.42-4.24,1.12-1.25,2.57-2.23,4.35-2.94,1.51-.6,2.87-.85,4.07-.76,1.2.09,2.31.62,3.35,1.56l.11-.04-.56-2.73,5.33-2.11,2.33,12.01Zm-5.89.56c-.6-1.51-1.43-2.63-2.51-3.34-1.07-.71-2.33-.79-3.76-.22-1.74.69-2.85,1.92-3.33,3.69-.48,1.77-.33,3.63.45,5.6.24.61.54,1.19.89,1.75.35.56.77,1.02,1.24,1.38.47.36,1.02.59,1.65.69.63.1,1.34,0,2.14-.32,1.17-.46,2.06-1.06,2.67-1.78.61-.72,1.01-1.51,1.2-2.35.19-.84.21-1.7.06-2.58-.15-.88-.39-1.72-.7-2.51Z"/><path class="cls-18" d="m695.33,173.95l-4.77,1.89-2.02-5.11,5.45-2.16-1.87-7.53-4.77,1.89-2.02-5.11,5.45-2.16-2.93-12.04,5.5-2.18,2.93,12.04,5.62-2.23-2.93-12.04,5.5-2.18,2.93,12.04,4.77-1.89,2.02,5.11-5.45,2.16,1.87,7.53,4.77-1.89,2.02,5.11-5.45,2.16,2.93,12.04-5.5,2.18-2.93-12.04-5.62,2.23,2.93,12.04-5.5,2.18-2.93-12.04Zm7.91-17.32l-5.62,2.23,1.87,7.53,5.62-2.23-1.87-7.53Z"/><path class="cls-18" d="m726.66,163.04l15.2-14.17-.04-.11-20.78.09-3.06-7.72,33.17-.15,2.83,7.15-24.26,22.62-3.06-7.72Z"/><path class="cls-18" d="m520.97,681.52c-5.92-23.27,60.38-68.85,67.67-91.08,5.71-17.42,24.71-34.42-10.75-107.02-7.87-16.11-16.87-31.82-30.55-40.93-4.11-2.73-8.53-4.91-13.19-5.87-5.3-1.09-10.78-.59-16,.93-4.8,1.4-9.4,3.73-13.59,6.81-3.87-1.08-12.97-4.45-16.75-4.83-48.69-4.91-103.17,56.28-99.03,103.81,1.83,21.06,9.63,41.08,17.4,60.75,7.77,19.66,61.59,56.41,63.66,77.44,1.94,19.78-26.92,54.77-30.21,74.37-7.23,43.02-13.04,36.11-20.28,79.13-2,11.88,1.45,23.23,4,35,2.55,11.77-16.47,42.05-4.71,44.64,21.17,4.67,41.13-19.83,62.06-14.15,13.78,3.74,22.76,19.73,37.03,20.31,14.91.6,24.68-15.72,38.66-20.94,16.78-6.26,39.32,14.56,53.2,3.24,7.22-5.89-5.51-37.2-8.25-46.1-12-39,3.2-37.73-23-71-24.92-31.66-48.72-70.47-57.38-104.51Z"/><path class="cls-7" d="m520.7,666.02c.83-.19,1.78-.36,2.47.05.52.32.71.87.87,1.39,1.15,3.79,2.28,7.89.48,11.5-1.53,3.07-4.99,5.26-8.74,6.47-3.75,1.21-7.81,1.57-11.81,1.91-8.12.7-16.24,1.4-24.36,2.1-4.44.38-9.59.55-12.6-2.16-1.57-1.41-2.2-3.35-2.78-5.2-1.17-3.76-2.34-7.64-1.65-11.47,2.15-11.89,13.32-4.87,22.33-3.47,11.83,1.84,24.17,1.48,35.78-1.13Z"/><path class="cls-16" d="m565.82,593.34c12.04,2.47,24.46,2.07,36.73,2.72,12.51.66,25.25,2.4,37.43-.55,12.18-2.95,23.96-12.07,25.36-24.52.75-6.66-1.51-13.26-3.96-19.49-7.16-18.22-15.13-37.19-29.69-50.3-11.85-10.67-34.44-22.07-53.85-24.67-17.86-2.39-34-4-50.11,7.3-2.19,1.53-4.09,3.53-4.39,6.19-.54,4.86,4.33,4.01,8,4.01,21.8,0,37.19,1.34,50.13,11.74,2.08,1.67.46,5.01-2.15,4.41-17.12-3.98-38.49-12.65-51.14-6.42-2.29,1.13-4.14,2.35-5.29,5.17-1.67,4.1.98,8.68,5.35,9.37,19.03,2.99,33.56,4.95,50.46,12.92,1.39.66.69,2.77-.82,2.46-11.61-2.4-22.64-3.65-40.54-3.65-4,0-7.49,2.38-9.15,4.07-5.35,5.43-2.06,11.24,1.15,12.93,10.5,5.5,40.57,2.19,60.02,10.11,2.1.85,1.29,4-.96,3.79-9.02-.82-16.89-3.74-27.21-4.29-7.58-.41-18.59-.32-24.34,5.68-14.11,14.71,17.88,28.75,28.97,31.02Z"/><path class="cls-16" d="m417.85,591.53c-12.04,2.47-24.88,2.33-37.15,2.98-12.51.66-25.25,2.4-37.43-.55-12.18-2.95-23.96-12.07-25.36-24.52-.75-6.66,1.51-13.26,3.96-19.49,7.16-18.22,16.4-35.91,29.69-50.3,13.28-14.39,30.95-25.31,50.36-27.91,16.31-2.18,31.94-3.21,48.79,5.2,3.6,1.8,6.98,4.15,7.38,8.16.47,4.75-.59,8.28-4.23,8.43-24,1-33.33.67-51.68,10.47-2.57,1.37-.17,2.19,2.68,1.53,17.12-3.98,44-13,55.49-1.02,4.63,4.82,1.61,12.92-4.99,13.99-18.19,2.95-34.74,3.61-50.76,11.16-1.39.66-.69,2.79.82,2.47,11.6-2.41,24.16-7.9,41.95-6.09,7.96.81,9.3,5.48,10,7,1.52,3.3.46,8.39-2.5,10.5-7.51,5.37-40.36,4.97-65.18,17.36-2.71,1.35-2.51,2.07.49,1.58,10.45-1.71,22.28-2.39,32.69-2.95,7.58-.41,18.06,2.68,22,10,7,13-15.91,19.73-27,22Z"/><path class="cls-5" d="m194.86,430.68c-2.63-2.85-7.04-3.09-9.97-.55l-.7.61c-1.14.25-2.25.74-3.19,1.56l-48.47,42.07c-2.9,2.52-3.3,6.87-.91,9.88l84.29,105.87c2.47,3.11,7,3.61,10.1,1.12l.99-.79c1.03-.23,2.02-.67,2.9-1.38l57.81-46.45c3.24-2.6,3.59-7.4.78-10.45l-93.63-101.49Z"/><path class="cls-3" d="m217.33,588.56l-84.29-105.87c-2.39-3-1.99-7.36.91-9.88l48.47-42.07c2.93-2.54,7.34-2.29,9.97.55l93.62,101.49c2.81,3.05,2.46,7.85-.78,10.45l-57.81,46.45c-3.1,2.49-7.62,1.98-10.1-1.12Z"/><path class="cls-18" d="m147.35,488.66l51.15,60.45c3.98,4.7,10.93,5.48,15.85,1.78l33.78-25.38c5.46-4.1,6.22-12.01,1.64-17.08l-55.07-60.98c-4.24-4.7-11.46-5.14-16.24-.99l-29.86,25.91c-4.8,4.17-5.36,11.43-1.25,16.28Z"/><ellipse class="cls-13" cx="242.51" cy="553.07" rx="10.26" ry="8.98" transform="translate(-338.26 387.51) rotate(-50.41)"/><line class="cls-17" x1="191.72" y1="516.74" x2="203.69" y2="531.39"/><polygon class="cls-17" points="192.11 516.42 204.9 530.41 202.49 532.38 191.33 517.06 192.11 516.42 192.11 516.42"/><line class="cls-17" x1="189.57" y1="507.3" x2="207.03" y2="528.67"/><polygon class="cls-17" points="189.95 506.98 208.24 527.68 205.82 529.66 189.18 507.61 189.95 506.98 189.95 506.98"/><line class="cls-17" x1="187.42" y1="497.86" x2="210.36" y2="525.95"/><polygon class="cls-17" points="187.8 497.54 211.57 524.96 209.15 526.93 187.03 498.17 187.8 497.54 187.8 497.54"/><line class="cls-17" x1="196.24" y1="501.85" x2="213.7" y2="523.22"/><polygon class="cls-17" points="196.62 501.54 214.9 522.24 212.49 524.21 195.85 502.17 196.62 501.54 196.62 501.54"/><line class="cls-17" x1="205.06" y1="505.84" x2="217.03" y2="520.5"/><polygon class="cls-17" points="205.44 505.53 218.24 519.51 215.82 521.49 204.67 506.16 205.44 505.53 205.44 505.53"/><line class="cls-17" x1="191.93" y1="482.97" x2="220.36" y2="517.78"/><polygon class="cls-17" points="192.32 482.65 221.57 516.79 219.16 518.76 191.54 483.29 192.32 482.65 192.32 482.65"/><line class="cls-17" x1="217.21" y1="507.11" x2="223.7" y2="515.05"/><polygon class="cls-17" points="217.6 506.8 224.91 514.07 222.49 516.04 216.83 507.43 217.6 506.8 217.6 506.8"/><line class="cls-17" x1="215.06" y1="497.67" x2="227.03" y2="512.33"/><polygon class="cls-17" points="215.45 497.36 228.24 511.34 225.82 513.32 214.67 497.99 215.45 497.36 215.45 497.36"/><line class="cls-17" x1="212.91" y1="488.23" x2="230.37" y2="509.61"/><polygon class="cls-17" points="213.29 487.92 231.57 508.62 229.16 510.59 212.52 488.55 213.29 487.92 213.29 487.92"/><path class="cls-17" d="m199.9,534.27c11.03-9.05,22.39-18.34,33.49-27.36"/><path class="cls-17" d="m233.57,506.12l-33.99,27.76.64.79,34.2-27.94c-.29-.17-.57-.37-.85-.61Z"/></svg>