<?xml version="1.0" encoding="UTF-8"?><svg id="Laag_1" xmlns="http://www.w3.org/2000/svg" viewBox="0 0 1000 1000"><defs><style>.cls-1{stroke-width:2.48px;}.cls-1,.cls-2,.cls-3,.cls-4,.cls-5,.cls-6,.cls-7{stroke:#000;stroke-linecap:round;stroke-linejoin:round;}.cls-1,.cls-4,.cls-5{fill:#fffaa4;}.cls-2{stroke-width:5.42px;}.cls-2,.cls-3{fill:#fcc97e;}.cls-3{stroke-width:4.82px;}.cls-4{stroke-width:5.4px;}.cls-8,.cls-9{stroke-width:0px;}.cls-5{stroke-width:3px;}.cls-6{fill:none;stroke-width:4.71px;}.cls-7{fill:#e88623;stroke-width:6.69px;}.cls-9{fill:#faf6f1;}</style></defs><path class="cls-4" d="m620.91,604.22c32.53,20.06,56.26,61.08,62.95,110.55,6.69-49.47,30.42-90.49,62.95-110.55,6.33-3.9,22.09-9.91,22.09-9.91,0,0-15.76-6-22.09-9.91-32.53-20.06-56.26-61.08-62.95-110.55-6.69,49.47-30.42,90.49-62.95,110.55-6.33,3.9-22.09,9.91-22.09,9.91,0,0,15.76,6,22.09,9.91Z"/><path class="cls-4" d="m745.75,518.61h4.43v4.43s0,24.44,7.79,24.44,7.79-24.44,7.79-24.44v-4.43h4.43s24.44,0,24.44-7.79-24.44-7.79-24.44-7.79h-4.43v-4.43s0-24.44-7.79-24.44-7.79,24.44-7.79,24.44v4.43h-4.43s-24.44,0-24.44,7.79,24.44,7.79,24.44,7.79Z"/><path class="cls-4" d="m647.03,249.53c21.23,11.43,36.73,34.81,41.1,63.01,4.37-28.2,19.86-51.58,41.1-63.01,4.13-2.22,14.42-5.65,14.42-5.65,0,0-10.29-3.42-14.42-5.65-21.23-11.43-36.73-34.81-41.1-63.01-4.37,28.2-19.86,51.58-41.1,63.01-4.13,2.22-14.42,5.65-14.42,5.65,0,0,10.29,3.42,14.42,5.65Z"/><path class="cls-4" d="m630.04,428.47c0-6.77,5.49-12.26,12.26-12.26s12.26,5.49,12.26,12.26-5.49,12.26-12.26,12.26-12.26-5.49-12.26-12.26Z"/><rect class="cls-7" x="264.67" y="340.04" width="368.77" height="250.01" rx="9.7" ry="9.7"/><path class="cls-7" d="m225.32,634.94l38.26-43.64c.71-.81,1.54-1.24,2.38-1.24h366.09c.9,0,1.78.49,2.53,1.41l35.2,43.64c3.56,4.41,1.81,14.35-2.53,14.35H227.7c-4.42,0-6.11-10.28-2.38-14.52Z"/><polygon class="cls-8" points="229.42 665.44 667.86 665.44 672.67 647.38 223 649.46 229.42 665.44"/><path class="cls-2" d="m287.04,368.79v188.34c0,4.37,3.83,7.92,8.56,7.92h308.45c4.73,0,8.56-3.55,8.56-7.92v-188.34c0-4.37-3.83-7.92-8.56-7.92h-308.45c-4.73,0-8.56,3.55-8.56,7.92Z"/><path class="cls-2" d="m315.55,620.5l12.27-16.38c.26-.35.55-.53.84-.53h253.36c.25,0,.49.13.72.37l15,16.38c1.74,1.9,1.19,8.27-.72,8.27h-280.63c-1.83,0-2.45-5.98-.84-8.12Z"/><path class="cls-4" d="m294.84,401.06l1.01,4.59,1.45-7.96c4.6-25.32,18.76-47.9,39.56-63.06h0,0c-20.24-17.17-34.29-40.51-39.99-66.43l-1.01-4.59-1.44,7.96c-4.6,25.32-18.76,47.9-39.56,63.06h0c20.24,17.17,34.29,40.51,39.99,66.43Z"/><path class="cls-4" d="m226.68,341.49l.42,1.91.6-3.31c1.91-10.54,7.81-19.93,16.46-26.24h0c-8.42-7.15-14.27-16.86-16.64-27.65l-.42-1.91-.6,3.31c-1.91,10.54-7.81,19.93-16.46,26.24h0c8.42,7.15,14.27,16.86,16.64,27.65Z"/><path class="cls-5" d="m221.46,380.28c-.24-3.12,2.1-5.83,5.21-6.07,3.12-.24,5.83,2.1,6.07,5.21.24,3.12-2.1,5.83-5.21,6.07-3.12.24-5.83-2.1-6.07-5.21Z"/><path class="cls-5" d="m212.05,401.21c-.11-1.44.97-2.69,2.4-2.8,1.44-.11,2.69.97,2.8,2.4.11,1.44-.97,2.69-2.4,2.8-1.44.11-2.69-.97-2.8-2.4Z"/><rect class="cls-9" x="308.81" y="323.48" width="79.6" height="74.95"/><path class="cls-8" d="m386.03,401.99h-75.87c-2.11,0-3.83-1.71-3.83-3.83v-75.87c0-2.11,1.71-3.83,3.83-3.83h75.87c2.11,0,3.83,1.71,3.83,3.83v75.87c0,2.11-1.71,3.83-3.83,3.83Zm-72.05-7.65h68.22v-68.22h-68.22v68.22Z"/><path class="cls-8" d="m347.22,374.07c-.12,0-.23,0-.35-.01-2-.15-3.71-1.53-4.26-3.46-1.9-6.62-6.37-12.47-12.26-16.05-2.26-1.38-2.98-4.33-1.61-6.59,1.38-2.26,4.33-2.98,6.59-1.61,4.87,2.96,9.02,7.08,12.09,11.88,5.47-9.82,12.41-19.23,20.72-28.08,10.04-10.69,22.04-20.53,35.66-29.23,2.23-1.43,5.2-.77,6.62,1.46,1.43,2.23.77,5.2-1.46,6.62-26.84,17.15-46.69,38.68-57.38,62.25-.78,1.72-2.5,2.82-4.37,2.82Z"/><path class="cls-8" d="m306.51,399.59l19.75,31.82c1.2,1.94,3.32,3.11,5.59,3.11h32.97c2.31,0,4.45-1.21,5.64-3.18l19.16-31.75h-83.11Z"/><rect class="cls-9" x="416.18" y="323.48" width="79.6" height="74.95"/><path class="cls-8" d="m493.4,401.99h-75.87c-2.11,0-3.83-1.71-3.83-3.83v-75.87c0-2.11,1.71-3.83,3.83-3.83h75.87c2.11,0,3.83,1.71,3.83,3.83v75.87c0,2.11-1.71,3.83-3.83,3.83Zm-72.05-7.65h68.22v-68.22h-68.22v68.22Z"/><path class="cls-8" d="m454.59,374.07c-.12,0-.23,0-.35-.01-2-.15-3.71-1.53-4.26-3.46-1.9-6.62-6.37-12.47-12.26-16.05-2.26-1.38-2.98-4.33-1.61-6.59,1.38-2.26,4.33-2.98,6.59-1.61,4.87,2.96,9.02,7.08,12.09,11.88,5.47-9.82,12.41-19.23,20.72-28.08,10.04-10.69,22.04-20.53,35.66-29.23,2.23-1.43,5.2-.77,6.62,1.46,1.43,2.23.77,5.2-1.46,6.62-26.84,17.15-46.69,38.68-57.38,62.25-.78,1.72-2.5,2.82-4.37,2.82Z"/><path class="cls-8" d="m413.88,399.59l19.75,31.82c1.2,1.94,3.32,3.11,5.59,3.11h32.97c2.31,0,4.45-1.21,5.64-3.18l19.16-31.75h-83.11Z"/><rect class="cls-9" x="519.77" y="323.48" width="79.6" height="74.95"/><path class="cls-8" d="m596.98,401.99h-75.87c-2.11,0-3.83-1.71-3.83-3.83v-75.87c0-2.11,1.71-3.83,3.83-3.83h75.87c2.11,0,3.83,1.71,3.83,3.83v75.87c0,2.11-1.71,3.83-3.83,3.83Zm-72.05-7.65h68.22v-68.22h-68.22v68.22Z"/><path class="cls-8" d="m558.17,374.07c-.12,0-.23,0-.35-.01-2-.15-3.71-1.53-4.26-3.46-1.9-6.62-6.37-12.47-12.26-16.05-2.26-1.38-2.98-4.33-1.61-6.59,1.38-2.26,4.33-2.98,6.59-1.61,4.87,2.96,9.02,7.08,12.09,11.88,5.47-9.82,12.41-19.23,20.72-28.08,10.04-10.69,22.04-20.53,35.66-29.23,2.23-1.43,5.2-.77,6.62,1.46,1.43,2.23.77,5.2-1.46,6.62-26.84,17.15-46.69,38.68-57.38,62.25-.78,1.72-2.5,2.82-4.37,2.82Z"/><path class="cls-8" d="m517.47,399.59l19.75,31.82c1.2,1.94,3.32,3.11,5.59,3.11h32.97c2.31,0,4.45-1.21,5.64-3.18l19.16-31.75h-83.11Z"/><line class="cls-3" x1="322.17" y1="483.56" x2="371.55" y2="483.56"/><line class="cls-3" x1="322.17" y1="498.02" x2="371.55" y2="498.02"/><line class="cls-3" x1="430.57" y1="482.36" x2="479.96" y2="482.36"/><line class="cls-3" x1="430.57" y1="496.81" x2="479.96" y2="496.81"/><line class="cls-3" x1="534.16" y1="482.36" x2="583.54" y2="482.36"/><line class="cls-3" x1="534.16" y1="496.81" x2="583.54" y2="496.81"/><path class="cls-6" d="m675.13,400.27c1-8,3.6-13.93,6.59-18.98,4.49-7.58,9.87-14.89,17.2-19.79s16.89-7.1,25.14-4c2.78,1.05,9.83,6.61,5.08,14.76-7,12-27,5-33-2-4.18-4.88-2.37-15.28,1.4-20.48,10.7-14.78,28.56-22.25,45.51-29.02"/><path class="cls-1" d="m728.52,295.84c-.33-4.31,2.9-8.07,7.22-8.4,4.31-.33,8.07,2.9,8.4,7.22.33,4.31-2.9,8.07-7.22,8.4-4.31.33-8.07-2.9-8.4-7.22Z"/></svg>