<?xml version="1.0" encoding="UTF-8"?><svg id="Laag_1" xmlns="http://www.w3.org/2000/svg" viewBox="0 0 1000 1000"><defs><style>.cls-1{fill:#e88623;stroke-width:5.04px;}.cls-1,.cls-2,.cls-3,.cls-4,.cls-5,.cls-6,.cls-7,.cls-8,.cls-9{stroke-linecap:round;stroke-linejoin:round;}.cls-1,.cls-3,.cls-5,.cls-6,.cls-7,.cls-8,.cls-9{stroke:#000;}.cls-2{stroke-width:18.85px;}.cls-2,.cls-3,.cls-4,.cls-5{fill:#fcc97e;}.cls-2,.cls-4{stroke:#fcc97e;}.cls-3{stroke-width:5.65px;}.cls-4{stroke-width:20px;}.cls-5{stroke-width:5.32px;}.cls-6{stroke-width:4.05px;}.cls-6,.cls-7{fill:#faf6f1;}.cls-7{stroke-width:3.51px;}.cls-8{stroke-width:9.75px;}.cls-8,.cls-9{fill:#f8ae54;}.cls-10{letter-spacing:0em;}.cls-9{stroke-width:6.5px;}.cls-11{letter-spacing:-.02em;}.cls-12{letter-spacing:-.01em;}.cls-13,.cls-14{stroke-width:0px;}.cls-15{letter-spacing:0em;}.cls-14{fill:#ddd9d4;}.cls-16{letter-spacing:-.02em;}.cls-17{font-family:Montserrat-Bold, Montserrat;font-size:50px;font-weight:700;}</style></defs><rect class="cls-7" x="179.5" y="184.83" width="696" height="134.5" rx="67.25" ry="67.25"/><text class="cls-17" transform="translate(355.05 266.28)"><tspan class="cls-11" x="0" y="0">K</tspan><tspan class="cls-15" x="35.9" y="0">e</tspan><tspan class="cls-10" x="66.95" y="0">y Insights</tspan></text><rect class="cls-6" x="707.5" y="217.83" width="134" height="65" rx="32.5" ry="32.5"/><rect class="cls-14" x="722.5" y="226.83" width="111" height="48" rx="23.28" ry="23.28"/><circle class="cls-13" cx="741.5" cy="250.83" r="24"/><rect class="cls-7" x="179.14" y="444.73" width="696" height="134.5" rx="67.25" ry="67.25"/><text class="cls-17" transform="translate(354.7 526.18)"><tspan class="cls-12" x="0" y="0">P</tspan><tspan x="35.85" y="0">ainpoints</tspan></text><rect class="cls-6" x="707.14" y="477.73" width="134" height="65" rx="32.5" ry="32.5"/><rect class="cls-14" x="722.14" y="486.73" width="111" height="48" rx="23.28" ry="23.28"/><circle class="cls-13" cx="741.14" cy="510.73" r="24"/><rect class="cls-7" x="179.14" y="704.73" width="696" height="134.5" rx="67.25" ry="67.25"/><text class="cls-17" transform="translate(354.7 786.18)"><tspan x="0" y="0">Quo</tspan><tspan class="cls-16" x="109.3" y="0">t</tspan><tspan x="130.2" y="0">es</tspan></text><rect class="cls-6" x="707.14" y="737.73" width="134" height="65" rx="32.5" ry="32.5"/><rect class="cls-14" x="722.14" y="746.73" width="111" height="48" rx="23.28" ry="23.28"/><circle class="cls-13" cx="741.14" cy="770.73" r="24"/><polygon class="cls-4" points="264.34 601.45 212.75 570.64 191.99 586.05 172.56 560.59 131.03 601.45 189.31 618.87 207.4 601.45 264.34 601.45"/><path class="cls-4" d="m286.44,582.7c-6.03,0-88.42-57.61-88.42-57.61l-29.47,10.05-37.51-75.03,56.94-19.43-4.02,59.62,24.79-7.37,77.71,89.76Z"/><path class="cls-4" d="m304.53,538.49l-32.15-52.25h-31.48v-49.57l37.51-10.05s-6.03,34.16-5.36,34.16,26.13,7.37,26.13,7.37l5.36,70.34Z"/><polygon class="cls-3" points="265.28 601.26 213.7 570.44 192.93 585.85 173.5 560.39 131.97 601.26 190.25 618.67 208.34 601.26 265.28 601.26"/><path class="cls-3" d="m287.39,582.5c-6.03,0-88.42-57.61-88.42-57.61l-29.47,10.05-37.51-75.03,56.94-19.43-4.02,59.62,24.79-7.37,77.71,89.76Z"/><path class="cls-3" d="m305.47,538.29l-32.15-52.25h-31.48v-49.57l37.51-10.05s-6.03,34.16-5.36,34.16,26.13,7.37,26.13,7.37l5.36,70.34Z"/><path class="cls-4" d="m323.51,290.93c-21.05-15.18-64.75-53.89-83.52-123.96-1.28-4.77-6.36-7.41-10.97-5.65l-82.24,31.47c-3.68,1.41-5.88,5.2-5.22,9.09,1.09,6.39,3.8,17.17,10.56,31.85-1.46,7.58-1.17,15.55,1.16,23.24,2.17,7.14,5.73,13.19,10.15,18.21l-34.17,58.57c-3.83,6.56-5.58,14.23-4.41,21.74,1.09,6.97,4.54,13.44,13.98,11.58,6.89-1.36,12.46-6.42,15.1-12.92l26.93-66.41c2.23.94,4.54,1.7,6.88,2.31,12.5,15.83,28.31,33.42,48.35,52.6,2.53,2.42,6.34,2.97,9.46,1.38l76.87-38.97c5.55-2.82,6.13-10.49,1.08-14.13Z"/><path class="cls-3" d="m141.96,202.84c2.97,17.44,18.04,67.56,94.54,140.77,2.53,2.42,6.34,2.97,9.46,1.38l76.87-38.97c5.55-2.82,6.13-10.49,1.08-14.13-21.05-15.18-64.75-53.89-83.52-123.96-1.28-4.77-6.36-7.41-10.97-5.65l-82.24,31.47c-3.68,1.41-5.88,5.2-5.22,9.09Z"/><line class="cls-8" x1="204.86" y1="230.05" x2="234.11" y2="218.1"/><line class="cls-8" x1="218.94" y1="251.71" x2="253.28" y2="235.75"/><line class="cls-9" x1="218.96" y1="285.38" x2="270.38" y2="261.17"/><line class="cls-9" x1="244.39" y1="298.82" x2="285.18" y2="280.12"/><line class="cls-9" x1="228.14" y1="307.48" x2="232.9" y2="304.92"/><line class="cls-8" x1="185.45" y1="238.16" x2="191.22" y2="235.81"/><line class="cls-8" x1="198.62" y1="262.45" x2="204.38" y2="260.1"/><path class="cls-1" d="m154.35,355.11l26.93-66.41c13.31,5.62,28.94,5.35,42.55-2.13.81-.45,1.61-.93,2.4-1.41,21.08-13.15,28.85-40.71,17.82-62.95-12.75-25.71-44.74-34.92-69.2-19.9-18.78,11.47-27.52,34.59-21.15,55.63,2.17,7.14,5.73,13.19,10.15,18.21l-34.17,58.57c-3.83,6.56-5.58,14.23-4.41,21.74,1.09,6.97,4.54,13.44,13.98,11.58,6.89-1.36,12.46-6.42,15.1-12.92Zm65.78-85c-17.26,12.53-41.42,5.51-49.28-14.32-5.35-13.51-.76-29.32,11-37.85,17.26-12.53,41.42-5.51,49.28,14.32,5.35,13.51.76,29.32-11,37.85Z"/><path class="cls-2" d="m320.85,689.33c0-9.31-2.01-16.49-6.02-21.53-4.02-5.04-9.27-7.56-15.77-7.56-5.64,0-10.43,1.86-14.36,5.58-3.93,3.72-5.9,8.27-5.9,13.65,0,2.87.58,5.52,1.71,7.95h-16.25c-.27-8.22-2.27-14.73-6.03-19.49-4.06-5.13-9.29-7.69-15.7-7.69-5.64,0-10.41,1.84-14.29,5.51-3.89,3.68-5.83,8.25-5.83,13.72,0,2.86.58,5.5,1.72,7.95h-76.64c-10.85,0-19.64,8.79-19.64,19.64v89.85c0,10.85,8.79,19.64,19.64,19.64h54.07l18.73,24.21,16.42-24.21h55.65c10.85,0,19.64-8.79,19.64-19.64v-77.33c1.25-1.97,2.44-4.07,3.54-6.34,3.54-7.31,5.32-15.27,5.32-23.91Z"/><path class="cls-5" d="m292.01,685.63h-144.87c-10.85,0-19.64,8.79-19.64,19.64v89.85c0,10.85,8.79,19.64,19.64,19.64h54.07l18.73,24.21,16.42-24.21h55.65c10.85,0,19.64-8.79,19.64-19.64v-89.85c0-10.85-8.79-19.64-19.64-19.64Z"/><path class="cls-13" d="m244.79,695.46h-1.92c-4.79,0-9.12-1.94-13.01-5.83-3.89-3.89-5.83-8.48-5.83-13.78s1.94-10.04,5.83-13.72c3.89-3.67,8.65-5.51,14.29-5.51,6.41,0,11.64,2.56,15.7,7.69,4.06,5.13,6.09,12.26,6.09,21.41,0,8.38-1.78,16.26-5.32,23.65-3.55,7.39-7.91,13.27-13.07,17.63-5.17,4.36-9.85,6.54-14.04,6.54-2.65,0-4.81-.83-6.47-2.5-1.67-1.67-2.5-3.69-2.5-6.09,0-3.85,1.75-6.67,5.26-8.46,4.53-2.65,8.08-5.55,10.64-8.72,2.56-3.16,4.02-7.26,4.36-12.31Zm56.4,0h-1.54c-4.87,0-9.29-1.92-13.27-5.77s-5.96-8.46-5.96-13.84,1.96-9.93,5.9-13.65c3.93-3.72,8.72-5.58,14.36-5.58,6.49,0,11.75,2.52,15.77,7.56,4.02,5.04,6.02,12.22,6.02,21.53,0,8.63-1.78,16.6-5.32,23.91-3.55,7.31-7.91,13.12-13.07,17.43-5.17,4.32-9.89,6.47-14.16,6.47-2.74,0-4.92-.81-6.54-2.44-1.62-1.62-2.44-3.67-2.44-6.15,0-3.76,1.75-6.58,5.26-8.46,4.87-2.82,8.5-5.75,10.9-8.78,2.39-3.03,3.76-7.11,4.1-12.24Z"/></svg>