<?xml version="1.0" encoding="UTF-8"?><svg id="Laag_1" xmlns="http://www.w3.org/2000/svg" viewBox="0 0 1000 1000"><defs><style>.cls-1{stroke-width:6.5px;}.cls-1,.cls-2,.cls-3,.cls-4,.cls-5,.cls-6,.cls-7{stroke:#000;stroke-linecap:round;stroke-linejoin:round;}.cls-1,.cls-2,.cls-4,.cls-5,.cls-7{fill:#fffaa4;}.cls-2{stroke-width:5.4px;}.cls-3{fill:none;stroke-width:4.64px;}.cls-4{stroke-width:3px;}.cls-5{stroke-width:6px;}.cls-6{fill:#e88623;stroke-width:6.69px;}.cls-7{stroke-width:3.72px;}</style></defs><polygon class="cls-6" points="445.19 503.6 425.86 412.44 818.76 266.25 445.19 503.6"/><path class="cls-6" d="m628.95,556.42s159.5-263.21,189.81-290.18l-368.62,184.2,178.81,105.98Z"/><polygon class="cls-6" points="508.24 487.61 445.27 503.58 450.13 450.44 508.24 487.61"/><polygon class="cls-6" points="379.47 334.65 818.76 266.25 425.86 412.44 379.47 334.65"/><path class="cls-3" d="m192.88,733.75c44.54-13.17,85.13-39.41,115.43-74.6,8.7-10.1,17-22.52,14.96-35.69-1.94-12.56-13.29-22.11-25.57-25.34-12.29-3.24-71.66-5.56-60.8,45.03,2.25,10.48,13.41,22.92,23.14,27.41,13,6,98.57,8.79,141.06-14.07,42.5-22.87,74.48-62.65,93.3-107.09"/><path class="cls-2" d="m369.64,517.1l1.01,4.59,1.45-7.96c4.6-25.32,18.76-47.9,39.56-63.06h0,0c-20.24-17.17-34.29-40.51-39.99-66.43l-1.01-4.59-1.44,7.96c-4.6,25.32-18.76,47.9-39.56,63.06h0c20.24,17.17,34.29,40.51,39.99,66.43Z"/><path class="cls-7" d="m366.92,687.75l.29,1.32.41-2.28c1.32-7.26,5.38-13.74,11.34-18.08h0c-5.8-4.92-9.83-11.62-11.47-19.05l-.29-1.32-.41,2.28c-1.32,7.26-5.38,13.74-11.34,18.08h0c5.8,4.92,9.83,11.62,11.47,19.05Z"/><path class="cls-4" d="m181.26,701.32c-.24-3.12,2.1-5.83,5.21-6.07,3.12-.24,5.83,2.1,6.07,5.21.24,3.12-2.1,5.83-5.21,6.07-3.12.24-5.83-2.1-6.07-5.21Z"/><path class="cls-4" d="m344.07,605.09c-.23-3,2.02-5.62,5.03-5.85,3-.23,5.62,2.02,5.85,5.03.23,3-2.02,5.62-5.03,5.85-3,.23-5.62-2.02-5.85-5.03Z"/><path class="cls-1" d="m408.32,572.22c-.45-5.95,4.01-11.13,9.95-11.58,5.95-.45,11.13,4.01,11.58,9.95.45,5.95-4,11.13-9.95,11.58-5.95.45-11.13-4-11.58-9.95Z"/><path class="cls-5" d="m503.34,677.31l.63,2.75.9-4.77c2.85-15.19,11.64-28.73,24.54-37.82h0c-12.56-10.3-21.27-24.29-24.81-39.84l-.63-2.75-.9,4.77c-2.85,15.19-11.64,28.73-24.54,37.82h0c12.56,10.3,21.27,24.29,24.81,39.84Z"/></svg>