<?xml version="1.0" encoding="UTF-8"?><svg id="Laag_1" xmlns="http://www.w3.org/2000/svg" viewBox="0 0 1000 1000"><defs><style>.cls-1{fill:#faf6f1;}.cls-1,.cls-2{stroke-width:5.04px;}.cls-1,.cls-2,.cls-3,.cls-4,.cls-5,.cls-6,.cls-7,.cls-8,.cls-9{stroke-linecap:round;stroke-linejoin:round;}.cls-1,.cls-2,.cls-3,.cls-4,.cls-6,.cls-7,.cls-8,.cls-9{stroke:#000;}.cls-2{fill:#e88623;}.cls-3{stroke-width:5.65px;}.cls-3,.cls-5,.cls-9,.cls-10{fill:#fcc97e;}.cls-4{fill:#f7b49c;stroke-width:4.71px;}.cls-5{stroke:#fcc97e;stroke-width:20px;}.cls-6{stroke-dasharray:0 0 57.25 57.25;}.cls-6,.cls-7,.cls-8{fill:none;stroke-width:10.13px;}.cls-11,.cls-10{stroke-width:0px;}.cls-8{stroke-dasharray:0 0 47.8 47.8;}.cls-9{stroke-width:6.02px;}</style></defs><path class="cls-5" d="m380.34,340.47l-21.92-116.69c-1.12-5.98-6.89-9.92-12.87-8.8l-128.55,24.14c-5.98,1.12-9.92,6.89-8.8,12.87l21.92,116.69c1.12,5.98,6.89,9.92,12.87,8.8l128.55-24.14c5.98-1.12,9.92-6.89,8.8-12.87Z"/><path class="cls-5" d="m771.18,357.15l17.39-117.45c.89-6.02-3.27-11.63-9.29-12.52l-129.39-19.16c-6.02-.89-11.63,3.27-12.52,9.29l-17.39,117.45c-.89,6.02,3.27,11.63,9.29,12.52l129.39,19.16c6.02.89,11.63-3.27,12.52-9.29Z"/><rect class="cls-3" x="308.08" y="428.18" width="412" height="364"/><polyline class="cls-7" points="684.21 729.68 684.21 756.68 657.2 756.68"/><line class="cls-6" x1="599.95" y1="756.68" x2="399.58" y2="756.68"/><polyline class="cls-7" points="370.95 756.68 343.95 756.68 343.95 729.68"/><line class="cls-8" x1="343.95" y1="681.88" x2="343.95" y2="514.59"/><polyline class="cls-7" points="343.95 490.69 343.95 463.68 370.95 463.68"/><line class="cls-6" x1="428.2" y1="463.68" x2="628.58" y2="463.68"/><polyline class="cls-7" points="657.2 463.68 684.21 463.68 684.21 490.69"/><line class="cls-8" x1="684.21" y1="538.49" x2="684.21" y2="705.78"/><rect class="cls-3" x="219.5" y="225.73" width="152.85" height="140.78" rx="11.02" ry="11.02" transform="translate(-49.58 59.71) rotate(-10.64)"/><line class="cls-11" x1="252.19" y1="310.34" x2="256.79" y2="334.84"/><polygon class="cls-11" points="253.49 310.09 260.86 334.08 252.73 335.6 250.89 310.58 253.49 310.09 253.49 310.09"/><line class="cls-11" x1="261.31" y1="297" x2="268.02" y2="332.73"/><polygon class="cls-11" points="262.61 296.75 272.09 331.97 263.96 333.49 260.01 297.24 262.61 296.75 262.61 296.75"/><line class="cls-11" x1="270.43" y1="283.66" x2="279.25" y2="330.62"/><polygon class="cls-11" points="271.74 283.41 283.32 329.86 275.19 331.39 269.13 283.9 271.74 283.41 271.74 283.41"/><line class="cls-11" x1="283.77" y1="292.78" x2="290.49" y2="328.51"/><polygon class="cls-11" points="285.08 292.53 294.55 327.75 286.42 329.28 282.47 293.02 285.08 292.53 285.08 292.53"/><line class="cls-11" x1="297.11" y1="301.9" x2="301.72" y2="326.4"/><polygon class="cls-11" points="298.42 301.65 305.78 325.64 297.65 327.17 295.81 302.14 298.42 301.65 298.42 301.65"/><line class="cls-11" x1="302.02" y1="266.1" x2="312.95" y2="324.29"/><polygon class="cls-11" points="303.32 265.85 317.02 323.53 308.88 325.06 300.72 266.34 303.32 265.85 303.32 265.85"/><line class="cls-11" x1="321.69" y1="308.91" x2="324.18" y2="322.18"/><polygon class="cls-11" points="322.99 308.67 328.25 321.42 320.11 322.95 320.38 309.16 322.99 308.67 322.99 308.67"/><line class="cls-11" x1="330.81" y1="295.57" x2="335.41" y2="320.07"/><polygon class="cls-11" points="332.11 295.33 339.48 319.31 331.34 320.84 329.51 295.81 332.11 295.33 332.11 295.33"/><line class="cls-11" x1="339.93" y1="282.23" x2="346.64" y2="317.96"/><polygon class="cls-11" points="341.23 281.99 350.71 317.2 342.57 318.73 338.63 282.47 341.23 281.99 341.23 281.99"/><path class="cls-11" d="m244.34,336.95c37.22-7.04,75.5-14.23,112.81-21.19"/><path class="cls-11" d="m358.7,314.79l-114.48,21.5.25,1.31,115.2-21.64c-.38-.34-.7-.74-.96-1.18Z"/><rect class="cls-3" x="631.17" y="216.73" width="152.85" height="140.78" rx="11.02" ry="11.02" transform="translate(49.54 -100.29) rotate(8.4)"/><path class="cls-1" d="m716.61,326.95l-67.07-9.9c-.82-.12-1.39-.88-1.27-1.7l11.19-75.79,1.59-10.77c.12-.82.88-1.39,1.7-1.27l67.07,9.9c.82.12,1.39.88,1.27,1.7l-12.78,86.56c-.12.82-.88,1.39-1.7,1.27Z"/><line class="cls-1" x1="671.93" y1="243.6" x2="716.4" y2="250.16"/><line class="cls-1" x1="669.68" y1="258.88" x2="714.14" y2="265.45"/><line class="cls-1" x1="667.42" y1="274.16" x2="711.88" y2="280.73"/><line class="cls-1" x1="665.16" y1="289.45" x2="709.62" y2="296.01"/><line class="cls-1" x1="662.91" y1="304.73" x2="707.37" y2="311.3"/><path class="cls-1" d="m749.52,343.77l-67.07-9.9c-.82-.12-1.39-.88-1.27-1.7l11.19-75.79,1.59-10.77c.12-.82.88-1.39,1.7-1.27l67.07,9.9c.82.12,1.39.88,1.27,1.7l-12.78,86.56c-.12.82-.88,1.39-1.7,1.27Z"/><line class="cls-1" x1="704.85" y1="260.42" x2="749.31" y2="266.98"/><line class="cls-1" x1="702.59" y1="275.7" x2="747.05" y2="282.27"/><line class="cls-1" x1="700.33" y1="290.98" x2="744.79" y2="297.55"/><line class="cls-1" x1="698.07" y1="306.27" x2="742.54" y2="312.83"/><line class="cls-1" x1="695.82" y1="321.55" x2="740.28" y2="328.12"/><polygon class="cls-11" points="422.51 458.68 445.51 484.68 559.51 484.68 564.47 458.56 422.51 458.68"/><rect class="cls-2" x="417.33" y="402.73" width="152.85" height="140.78" rx="11.02" ry="11.02"/><polygon class="cls-1" points="547.25 514.57 440.66 514.57 440.66 436.46 440.66 424.07 547.25 424.07 547.25 514.57"/><circle class="cls-11" cx="493.96" cy="477.36" r="25.14"/><path class="cls-10" d="m487.89,490.74v-28.48c0-1.36,1.59-2.09,2.62-1.21l16.76,14.24c.75.64.75,1.79,0,2.43l-16.76,14.24c-1.03.88-2.62.14-2.62-1.21Z"/><line class="cls-9" x1="546" y1="440" x2="442" y2="440"/><polygon class="cls-11" points="418.03 541.11 439.53 568.61 553.53 568.61 568.03 542.11 418.03 541.11"/><path class="cls-4" d="m512.51,539.68s-9,37,24.73,42.42c36.59,5.87,76.25-2.14,81.95-44.89,5.7-42.76-21.72-63.18-32.68-74.52-10.77-11.14-31.45-9.57-25.75,1.12,5.7,10.69,9.26,13.54,9.26,13.54,0,0-19.73-22.25-30.51-12.66-9,8,12.7,31.9,12.7,31.9,0,0-19.32-23.28-28.7-17.9-11.89,6.82-5.51,25.03,5.18,33.58,0,0-19.24-18.53-26.37-10.69-7.13,7.84,2.34,32.41,10.18,38.11Z"/><line class="cls-4" x1="527.2" y1="549.89" x2="510.1" y2="537.77"/></svg>